<svg id="Game_Over" data-name="Game Over" xmlns="http://www.w3.org/2000/svg" viewBox="0 0 898.43 96.6"><defs><style>.cls-1{fill:#7200dd;}</style></defs><path class="cls-1" d="M730,17.1h18.35c5.61,0,11.22.16,16.81-.07,2.75-.1,3.66.83,3.3,3.43a22.9,22.9,0,0,0,0,2.91l6.41.34V30h6.35c.1,2.21.19,4.19.3,6.41h6.13V42.7h6.46V36.63l6.36-.32V30.19l6.39-.31V23.77l6.42-.36c.11-2,.21-4,.32-6.12H852v96.28h-38.5V81.73H807.1v6.21h-6.39c-.09,2.2-.18,4.17-.28,6.38l-6.2.31v6.07h-6.36V94.57h-6.45V88h-6.3l-.3-6.3h-6.27v31.88H730Zm90.08,45.29v44.76h25.5V23.73H820.13c-.1,2.13-.19,4.1-.3,6.33h-6.22c-.1,2.24-.2,4.2-.29,6.28l-6.44.31V43h-6.39v6.39h-6.44v6.22h-6.33V49.27h-6.18l-.29-6.49h-6.38V36.62l-6.24-.32c-.11-2.2-.21-4.09-.31-6.13l-6.23-.31c-.11-2.2-.2-4.1-.29-6.15H736.42v83.4h25.67V62.42h6.23c.12,2.14.22,4.11.34,6.42h6.41v6.38h6.41V81.4l6.36.32v6.11h6.36V81.71l6.45-.31V75.07h6.2c.11-2.21.2-4.18.31-6.26l6.41-.31V62.39Z" transform="translate(-510.78 -17.03)"/><path class="cls-1" d="M510.78,36.48h6.13V30.16l6.48-.3V23.72l6.42-.33V17.32h77.37V49.26H556V81.34h6.21V56h45v57.55H530v-6l-6.51-.32V101H517V94.49h-6.21Zm38.76,51.36v-45h51.14v-19h-64.4v6.07l-6.48.34v6.13l-6.56.3V43h-6.1V87.88l6.31.31v6.13l6.43.32v6.13l6.3.28.33,6.14h64.2V62.42H568.57V87.84Z" transform="translate(-510.78 -17.03)"/><path class="cls-1" d="M877.85,94.48a24.27,24.27,0,0,0-3,0c-2.54.33-3.48-.47-3.46-3.27.14-17.21.07-34.42.07-51.63V36.51h6.35c.12-2.21.23-4.18.35-6.32l6.33-.37V23.55H891V17.29h64.3v32H916.73v6.34h32V75.12h-32v6.35h38.5v32.11H891.1v-6.09h-6.39c-.12-2.32-.22-4.29-.33-6.53h-6.15C878.1,98.74,878,96.77,877.85,94.48Zm71-70.77H897.36v6.42H890.9v6.18l-6.43.33v6.12l-6.21.29V88h6.3v6.3l6.53.29V101h6.37v6.15h51.33V88H910.32V68.58h32V62.2h-32V42.84H948.9Z" transform="translate(-510.78 -17.03)"/><path class="cls-1" d="M626.81,36.47h6.11V30.06h6.31c.11-2.21.21-4.18.32-6.36l6-.27a6.59,6.59,0,0,0,.34-1.34c.26-5,.25-5,5.15-5h39.92v6.26l6.41.35v6.12l6.42.33c.1,2,.19,3.87.3,6.13l6.17.32v77H671.91v-19h-6.42v18.95H626.81Zm51.42,51.71v19h25.44V42.82h-6.09c-.12-2.22-.21-4.19-.33-6.49h-6.37V30.18l-6.37-.35V23.71h-32c-.09,2.1-.18,4.07-.27,6.13l-6.47.4V36.3l-6.47.37v6.1l-6.12.27v64.14h25.72v-19Z" transform="translate(-510.78 -17.03)"/><path class="cls-1" d="M678,43.08v31.8H659.15V43.08Zm-12.47,6.38v19h6.07v-19Z" transform="translate(-510.78 -17.03)"/><path class="cls-1" d="M1299.27,75h-31.86v6.34h38.32v32.2H1235v-6.19h-6.37V101h-6.29V30l6.1-.34V23.51l6.48-.33V17h70.76V49.1h-38.23v6.43h31.83Zm-57.91,32.14h58V87.92h-38.48V68.55h32V62h-32V42.62h38.41v-19h-58v6.07l-6.37.33v6.14l-6.19.3V94.28l6.29.31v6.15l6.37.29Z" transform="translate(-510.78 -17.03)"/><path class="cls-1" d="M1202.25,94.4h-6.19v6.42h-6.3c-.1,2.21-.19,4.19-.28,6.41h-6.15v6.37H1138v-6.18h-6.47V101h-6.35l-.28-6.53h-6V17.08h38.41V81.24h6.52V17.09h38.43Zm-77.07-70.93V87.82l6.37.29v6.36h6.19c.1,2.23.19,4.21.29,6.52h6.4v6.19h32.4v-6.41h6.47V94.58l6.37-.33V88.1l6.25-.29V23.51h-25.6V87.69h-19.61V23.47Z" transform="translate(-510.78 -17.03)"/><path class="cls-1" d="M1396.58,17v6.11l6.31.33v6.14l6.32.34V68.5h-6.12v6.36l-6.39.3v6.17l6.21.29v6.15l6.31.33v25.49h-38.58V94.66h-6.55v19h-38.47V17Zm-.17,51.48c.1-2.23.2-4.21.3-6.52h6.09V36.4l-6.34-.28V30l-6.46-.33V23.58h-57.86v83.54h25.61V88.19h19.38v19h25.7V94.58l-6.34-.31V87.94h-6.44V81.65l-6.22-.32V75h6.08c.13-2.26.24-4.23.36-6.43Z" transform="translate(-510.78 -17.03)"/><path class="cls-1" d="M1028.06,113.61V107.4h-6.38V101h-6.3V29.94l6.19-.28V23.48l6.38-.3v-6.1h58.17v6.06l6.45.35V29.6l6.4.38v70.84h-6.16c-.11,2.24-.2,4.21-.3,6.43h-6.16c-.11,2.22-.21,4.2-.32,6.36Zm64.42-19.15v-58l-6.17-.32-.31-6.39h-6.36V23.54h-45.17v6.29h-6.55v6.5h-6.12V94.46h6.07l.29,6.3,6.41.28v6.14h45.17v-6.4h6.51V94.46Z" transform="translate(-510.78 -17.03)"/><path class="cls-1" d="M1376.81,68.44h-19V42.9h19ZM1364.26,49.3V61.88h6V49.3Z" transform="translate(-510.78 -17.03)"/><path class="cls-1" d="M1047.7,42.86h19V87.72h-19Zm12.63,38.44V49.4h-6V81.3Z" transform="translate(-510.78 -17.03)"/></svg>