<svg id="Game_Over" data-name="Game Over" xmlns="http://www.w3.org/2000/svg" viewBox="0 0 898.43 96.6">
<defs>
<style>.cls-1{fill:#40cce4;}</style>
</defs>
<path class="cls-1" d="M730,68.73h18.35c5.61,0,11.22.15,16.81-.07,2.75-.11,3.66.83,3.3,3.43a22.76,22.76,0,0,0,0,2.9l6.41.35v6.24h6.35c.1,2.21.19,4.18.3,6.4h6.13v6.35h6.46V88.26l6.36-.32V81.81l6.39-.3V75.39L813.3,75c.11-2,.21-4,.32-6.11H852v96.27h-38.5V133.35H807.1v6.22h-6.39c-.09,2.2-.18,4.17-.28,6.38l-6.2.31v6.07h-6.36V146.2h-6.45v-6.53h-6.3l-.3-6.3h-6.27v31.88H730ZM820.12,114v44.77h25.5V75.36H820.13c-.1,2.13-.19,4.1-.3,6.33h-6.22c-.1,2.23-.2,4.2-.29,6.27l-6.44.32v6.35h-6.39V101h-6.44v6.22h-6.33V100.9h-6.18l-.29-6.49h-6.38V88.25l-6.24-.32c-.11-2.2-.21-4.1-.31-6.14l-6.23-.3c-.11-2.21-.2-4.1-.29-6.15H736.42v83.4h25.67V114.05h6.23c.12,2.13.22,4.1.34,6.41h6.41v6.39h6.41V133l6.36.32v6.11h6.36v-6.13l6.45-.3v-6.34h6.2c.11-2.21.2-4.17.31-6.25l6.41-.31V114Z" transform="translate(-510.78 -68.65)"/>
<path class="cls-1" d="M510.78,88.11h6.13V81.79l6.48-.3V75.35l6.42-.33V69h77.37v31.94H556V133h6.21V107.61h45v57.54H530v-6l-6.51-.32v-6.2H517v-6.51h-6.21Zm38.76,51.36v-45h51.14v-19h-64.4v6.07l-6.48.33V88l-6.56.31v6.36h-6.1v44.89l6.31.31V146l6.43.31v6.14l6.3.28.33,6.14h64.2V114.05H568.57v25.42Z" transform="translate(-510.78 -68.65)"/><path class="cls-1" d="M877.85,146.1a24.27,24.27,0,0,0-3,0c-2.54.34-3.48-.47-3.46-3.26.14-17.21.07-34.42.07-51.63V88.14h6.35c.12-2.21.23-4.18.35-6.32l6.33-.37V75.18H891V68.92h64.3v32H916.73v6.34h32v19.49h-32v6.35h38.5v32.11H891.1v-6.1h-6.39c-.12-2.31-.22-4.28-.33-6.52h-6.15C878.1,150.37,878,148.4,877.85,146.1Zm71-70.76H897.36v6.42H890.9v6.18l-6.43.33v6.12l-6.21.29v45h6.3V146l6.53.29v6.36h6.37v6.15h51.33V139.59H910.32V120.2h32v-6.37h-32V94.46H948.9Z" transform="translate(-510.78 -68.65)"/><path class="cls-1" d="M626.81,88.1h6.11V81.69h6.31c.11-2.21.21-4.18.32-6.36l6-.27a6.59,6.59,0,0,0,.34-1.34c.26-5,.25-5,5.15-5h39.92V75l6.41.35v6.12l6.42.33c.1,2,.19,3.87.3,6.13l6.17.32v77H671.91v-19h-6.42V165.2H626.81Zm51.42,51.71v19h25.44V94.45h-6.09c-.12-2.22-.21-4.19-.33-6.5h-6.37V81.8l-6.37-.34V75.34h-32c-.09,2.1-.18,4.07-.27,6.13l-6.47.4v6.06l-6.47.37v6.09l-6.12.28V158.8h25.72v-19Z" transform="translate(-510.78 -68.65)"/><path class="cls-1" d="M678,94.71v31.8H659.15V94.71Zm-12.47,6.38v19h6.07v-19Z" transform="translate(-510.78 -68.65)"/><path class="cls-1" d="M1299.27,126.66h-31.86V133h38.32v32.2H1235V159h-6.37V152.6h-6.29v-71l6.1-.33V75.14l6.48-.33V68.65h70.76v32.08h-38.23v6.43h31.83Zm-57.91,32.13h58V139.54h-38.48V120.18h32v-6.56h-32V94.25h38.41v-19h-58v6.07l-6.37.33v6.13l-6.19.31v57.85l6.29.31v6.15l6.37.29Z" transform="translate(-510.78 -68.65)"/><path class="cls-1" d="M1202.25,146h-6.19v6.42h-6.3c-.1,2.2-.19,4.19-.28,6.41h-6.15v6.37H1138V159h-6.47v-6.41h-6.35l-.28-6.54h-6V68.71h38.41v64.16h6.52V68.72h38.43ZM1125.18,75.1v64.34l6.37.29v6.37h6.19c.1,2.23.19,4.21.29,6.52h6.4v6.19h32.4V152.4h6.47v-6.19l6.37-.33v-6.15l6.25-.29V75.14h-25.6v64.18h-19.61V75.1Z" transform="translate(-510.78 -68.65)"/><path class="cls-1" d="M1396.58,68.66v6.12l6.31.33v6.14l6.32.33v38.55h-6.12v6.36l-6.39.3V133l6.21.29v6.15l6.31.33v25.49h-38.58V146.28h-6.55v19h-38.47V68.66Zm-.17,51.48c.1-2.22.2-4.2.3-6.51h6.09V88l-6.34-.28V81.59l-6.46-.33V75.21h-57.86v83.54h25.61V139.82h19.38v19h25.7V146.2l-6.34-.31v-6.32h-6.44v-6.29l-6.22-.33v-6.37h6.08c.13-2.26.24-4.23.36-6.44Z" transform="translate(-510.78 -68.65)"/><path class="cls-1" d="M1028.06,165.24V159h-6.38v-6.41h-6.3V81.57l6.19-.28V75.11l6.38-.3V68.7h58.17v6.07l6.45.35v6.1l6.4.39v70.84h-6.16c-.11,2.24-.2,4.21-.3,6.43h-6.16c-.11,2.22-.21,4.2-.32,6.36Zm64.42-19.15v-58l-6.17-.32-.31-6.39h-6.36V75.17h-45.17v6.29h-6.55V88h-6.12v58.13h6.07l.29,6.3,6.41.28v6.13h45.17v-6.39h6.51v-6.32Z" transform="translate(-510.78 -68.65)"/><path class="cls-1" d="M1376.81,120.07h-19V94.53h19Zm-12.55-19.14v12.58h6V100.93Z" transform="translate(-510.78 -68.65)"/><path class="cls-1" d="M1047.7,94.48h19v44.87h-19Zm12.63,38.45V101h-6v31.9Z" transform="translate(-510.78 -68.65)"/></svg>