<svg id="Layer_4" data-name="Layer 4" xmlns="http://www.w3.org/2000/svg" viewBox="0 0 1027.98 154.9">
  <defs>
    <style>
      .cls-1 {
        fill: #7200dd;
      }

      .cls-2 {
        fill: red;
      }

      .cls-3 {
        fill: #7200dd;
      }
    </style>
  </defs>
  <g>
    <path class="cls-1" d="M442.3,645.38H446V649H442.3Zm0,4.3H446v3.66H442.3Zm0,4.31H446v3.65H442.3Zm0,4.3H446v3.65H442.3Zm0,4.37H446v3.65H442.3Zm0,4.3H446v3.66H442.3Zm0,4.31H446v3.65H442.3Zm4.3-25.89h3.65V649H446.6Zm0,4.3h3.65v3.66H446.6Zm0,4.31h3.65v3.65H446.6Zm0,4.3h3.65v3.65H446.6Zm0,4.37h3.65v3.65H446.6Zm0,4.3h3.65v3.66H446.6Zm0,4.31h3.65v3.65H446.6Zm4.3,0h3.65v3.65H450.9Zm4.31,0h3.65v3.65h-3.65Zm4.37,0h3.65v3.65h-3.65Zm4.3,0h3.65v3.65h-3.65Zm4.3,0h3.65v3.65h-3.65Z" transform="translate(-442.3 -645.38)"/>
    <path class="cls-1" d="M476.2,658.29h3.65v3.65H476.2Zm0,4.37h3.65v3.65H476.2Zm0,4.3h3.65v3.66H476.2Zm4.31-13h3.65v3.65h-3.65Zm0,4.3h3.65v3.65h-3.65Zm0,4.37h3.65v3.65h-3.65Zm0,4.3h3.65v3.66h-3.65Zm0,4.31h3.65v3.65h-3.65Zm4.3-17.28h3.65v3.65h-3.65Zm0,17.28h3.65v3.65h-3.65Zm4.3-17.28h3.66v3.65h-3.66Zm0,17.28h3.66v3.65h-3.66ZM493.48,654h3.65v3.65h-3.65Zm0,17.28h3.65v3.65h-3.65ZM497.79,654h3.65v3.65h-3.65Zm0,4.3h3.65v3.65h-3.65Zm0,4.37h3.65v3.65h-3.65Zm0,4.3h3.65v3.66h-3.65Zm0,4.31h3.65v3.65h-3.65Zm4.3-13h3.65v3.65h-3.65Zm0,4.37h3.65v3.65h-3.65Zm0,4.3h3.65v3.66h-3.65Z" transform="translate(-442.3 -645.38)"/>
    <path class="cls-1" d="M510.11,658.29h3.65v3.65h-3.65Zm0,4.37h3.65v3.65h-3.65Zm0,4.3h3.65v3.66h-3.65Zm4.3-13h3.66v3.65h-3.66Zm0,4.3h3.66v3.65h-3.66Zm0,4.37h3.66v3.65h-3.66Zm0,4.3h3.66v3.66h-3.66Zm0,4.31h3.66v3.65h-3.66ZM518.72,654h3.65v3.65h-3.65Zm0,17.28h3.65v3.65h-3.65ZM523,654h3.65v3.65H523Zm0,17.28h3.65v3.65H523ZM527.39,654H531v3.65h-3.65Zm0,17.28H531v3.65h-3.65Zm4.3-17.28h3.66v3.65h-3.66Zm0,4.3h3.66v3.65h-3.66Zm0,4.37h3.66v3.65h-3.66Zm0,4.3h3.66v3.66h-3.66Zm0,4.31h3.66v3.65h-3.66Zm4.31-13h3.65v3.65H536Zm0,4.37h3.65v3.65H536Zm0,4.3h3.65v3.66H536Z" transform="translate(-442.3 -645.38)"/>
    <path class="cls-1" d="M544,645.38h3.65V649H544Zm0,4.3h3.65v3.66H544Zm0,4.31h3.65v3.65H544Zm0,4.3h3.65v3.65H544Zm0,4.37h3.65v3.65H544Zm0,4.3h3.65v3.66H544Zm0,4.31h3.65v3.65H544Zm4.3-25.89H552V649h-3.65Zm0,4.3H552v3.66h-3.65Zm0,4.31H552v3.65h-3.65Zm0,4.3H552v3.65h-3.65Zm0,4.37H552v3.65h-3.65Zm0,4.3H552v3.66h-3.65Zm0,4.31H552v3.65h-3.65Zm4.3-8.61h3.66v3.65h-3.66Zm4.31-4.37h3.65v3.65h-3.65Zm0,4.37h3.65v3.65h-3.65Zm0,4.3h3.65v3.66h-3.65Zm4.37-13H565v3.65H561.3Zm0,4.3H565v3.65H561.3Zm0,8.67H565v3.66H561.3Zm0,4.31H565v3.65H561.3ZM565.6,654h3.65v3.65H565.6Zm0,17.28h3.65v3.65H565.6Z" transform="translate(-442.3 -645.38)"/>
    <path class="cls-1" d="M577.92,658.29h3.66v3.65h-3.66Zm4.31-4.3h3.65v3.65h-3.65Zm0,4.3h3.65v3.65h-3.65Zm0,4.37h3.65v3.65h-3.65Zm0,8.61h3.65v3.65h-3.65Zm4.3-17.28h3.65v3.65h-3.65Zm0,8.67h3.65v3.65h-3.65Zm0,8.61h3.65v3.65h-3.65ZM590.84,654h3.65v3.65h-3.65Zm0,8.67h3.65v3.65h-3.65Zm0,8.61h3.65v3.65h-3.65ZM595.2,654h3.66v3.65H595.2Zm0,8.67h3.66v3.65H595.2Zm0,8.61h3.66v3.65H595.2ZM599.51,654h3.65v3.65h-3.65Zm0,8.67h3.65v3.65h-3.65Zm0,4.3h3.65v3.66h-3.65Zm0,4.31h3.65v3.65h-3.65Zm4.3-4.31h3.65v3.66h-3.65Z" transform="translate(-442.3 -645.38)"/>
    <path class="cls-1" d="M645.74,645.38h3.65V649h-3.65Zm0,4.3h3.65v3.66h-3.65Zm0,4.31h3.65v3.65h-3.65Zm0,4.3h3.65v3.65h-3.65Zm0,4.37h3.65v3.65h-3.65Zm0,4.3h3.65v3.66h-3.65Zm0,4.31h3.65v3.65h-3.65Zm4.3-25.89h3.65V649H650Zm0,4.3h3.65v3.66H650Zm0,4.31h3.65v3.65H650Zm0,4.3h3.65v3.65H650Zm0,4.37h3.65v3.65H650Zm0,4.3h3.65v3.66H650Zm0,4.31h3.65v3.65H650Z" transform="translate(-442.3 -645.38)"/>
    <path class="cls-1" d="M658,645.38h3.65V649H658Zm0,8.61h3.65v3.65H658Zm0,4.3h3.65v3.65H658Zm0,4.37h3.65v3.65H658Zm0,4.3h3.65v3.66H658Zm0,4.31h3.65v3.65H658Zm4.3-25.89H666V649H662.3Zm0,8.61H666v3.65H662.3Zm0,4.3H666v3.65H662.3Zm0,4.37H666v3.65H662.3Zm0,4.3H666v3.66H662.3Zm0,4.31H666v3.65H662.3Z" transform="translate(-442.3 -645.38)"/>
    <path class="cls-1" d="M670.26,645.38h3.65V649h-3.65Zm0,4.3h3.65v3.66h-3.65Zm0,4.31h3.65v3.65h-3.65Zm0,4.3h3.65v3.65h-3.65Zm0,4.37h3.65v3.65h-3.65Zm0,4.3h3.65v3.66h-3.65Zm0,4.31h3.65v3.65h-3.65Zm4.3-25.89h3.65V649h-3.65Zm0,4.3h3.65v3.66h-3.65Zm0,4.31h3.65v3.65h-3.65Zm0,4.3h3.65v3.65h-3.65Zm0,4.37h3.65v3.65h-3.65Zm0,4.3h3.65v3.66h-3.65Zm0,4.31h3.65v3.65h-3.65Zm4.3-8.61h3.65v3.65h-3.65Zm4.31-4.37h3.65v3.65h-3.65Zm0,4.37h3.65v3.65h-3.65Zm0,4.3h3.65v3.66h-3.65Zm4.37-13h3.65v3.65h-3.65Zm0,4.3h3.65v3.65h-3.65Zm0,8.67h3.65v3.66h-3.65Zm0,4.31h3.65v3.65h-3.65Zm4.3-17.28h3.65v3.65h-3.65Zm0,17.28h3.65v3.65h-3.65Z" transform="translate(-442.3 -645.38)"/>
    <path class="cls-1" d="M704.16,658.29h3.65v3.65h-3.65Zm0,4.37h3.65v3.65h-3.65Zm0,4.3h3.65v3.66h-3.65Zm4.31-13h3.65v3.65h-3.65Zm0,4.3h3.65v3.65h-3.65Zm0,4.37h3.65v3.65h-3.65Zm0,4.3h3.65v3.66h-3.65Zm0,4.31h3.65v3.65h-3.65Zm4.3-17.28h3.65v3.65h-3.65Zm0,8.67h3.65v3.65h-3.65Zm0,8.61h3.65v3.65h-3.65Zm4.3-17.28h3.66v3.65h-3.66Zm0,8.67h3.66v3.65h-3.66Zm0,8.61h3.66v3.65h-3.66ZM721.44,654h3.65v3.65h-3.65Zm0,8.67h3.65v3.65h-3.65Zm0,8.61h3.65v3.65h-3.65ZM725.75,654h3.65v3.65h-3.65Zm0,4.3h3.65v3.65h-3.65Zm0,4.37h3.65v3.65h-3.65Zm0,8.61h3.65v3.65h-3.65Zm4.3-13h3.65v3.65h-3.65Zm0,4.37h3.65v3.65h-3.65Z" transform="translate(-442.3 -645.38)"/>
    <path class="cls-1" d="M772,654h3.65v3.65H772Zm0,4.3h3.65v3.65H772Zm0,4.37h3.65v3.65H772Zm0,4.3h3.65v3.66H772Zm4.3-13h3.65v3.65h-3.65Zm0,4.3h3.65v3.65h-3.65Zm0,4.37h3.65v3.65h-3.65Zm0,4.3h3.65v3.66h-3.65Zm0,4.31h3.65v3.65h-3.65Zm0,8.67h3.65v3.65h-3.65Zm4.3-8.67h3.66v3.65h-3.66Zm0,8.67h3.66v3.65h-3.66Zm4.31-8.67h3.65v3.65h-3.65Zm0,8.67h3.65v3.65h-3.65Zm4.37-8.67h3.65v3.65h-3.65Zm0,8.67h3.65v3.65h-3.65Zm4.3-26h3.65v3.65h-3.65Zm0,4.3h3.65v3.65h-3.65Zm0,4.37h3.65v3.65h-3.65Zm0,4.3h3.65v3.66h-3.65Zm0,4.31h3.65v3.65h-3.65Zm0,4.3h3.65v3.65h-3.65Zm0,4.37h3.65v3.65h-3.65Zm4.3-26h3.66v3.65h-3.66Zm0,4.3h3.66v3.65h-3.66Zm0,4.37h3.66v3.65h-3.66Zm0,4.3h3.66v3.66h-3.66Zm0,4.31h3.66v3.65h-3.66Zm0,4.3h3.66v3.65h-3.66Z" transform="translate(-442.3 -645.38)"/>
    <path class="cls-1" d="M805.88,658.29h3.66v3.65h-3.66Zm0,4.37h3.66v3.65h-3.66Zm0,4.3h3.66v3.66h-3.66Zm4.31-13h3.65v3.65h-3.65Zm0,4.3h3.65v3.65h-3.65Zm0,4.37h3.65v3.65h-3.65Zm0,4.3h3.65v3.66h-3.65Zm0,4.31h3.65v3.65h-3.65Zm4.3-17.28h3.65v3.65h-3.65Zm0,17.28h3.65v3.65h-3.65ZM818.8,654h3.65v3.65H818.8Zm0,17.28h3.65v3.65H818.8ZM823.16,654h3.66v3.65h-3.66Zm0,17.28h3.66v3.65h-3.66ZM827.47,654h3.65v3.65h-3.65Zm0,4.3h3.65v3.65h-3.65Zm0,4.37h3.65v3.65h-3.65Zm0,4.3h3.65v3.66h-3.65Zm0,4.31h3.65v3.65h-3.65Zm4.3-13h3.65v3.65h-3.65Zm0,4.37h3.65v3.65h-3.65Zm0,4.3h3.65v3.66h-3.65Z" transform="translate(-442.3 -645.38)"/>
    <path class="cls-1" d="M839.79,654h3.65v3.65h-3.65Zm0,4.3h3.65v3.65h-3.65Zm0,4.37h3.65v3.65h-3.65Zm0,4.3h3.65v3.66h-3.65Zm4.31-13h3.65v3.65H844.1Zm0,4.3h3.65v3.65H844.1Zm0,4.37h3.65v3.65H844.1Zm0,4.3h3.65v3.66H844.1Zm0,4.31h3.65v3.65H844.1Zm4.3,0h3.65v3.65H848.4Zm4.3,0h3.65v3.65H852.7Zm4.37,0h3.65v3.65h-3.65ZM861.38,654H865v3.65h-3.65Zm0,4.3H865v3.65h-3.65Zm0,4.37H865v3.65h-3.65Zm0,4.3H865v3.66h-3.65Zm0,4.31H865v3.65h-3.65Zm4.3-17.28h3.65v3.65h-3.65Zm0,4.3h3.65v3.65h-3.65Zm0,4.37h3.65v3.65h-3.65Zm0,4.3h3.65v3.66h-3.65Zm0,4.31h3.65v3.65h-3.65Z" transform="translate(-442.3 -645.38)"/>
    <path class="cls-1" d="M907.61,654h3.65v3.65h-3.65Zm4.3-4.31h3.65v3.66h-3.65Zm0,4.31h3.65v3.65h-3.65Zm0,4.3h3.65v3.65h-3.65Zm0,4.37h3.65v3.65h-3.65Zm0,4.3h3.65v3.66h-3.65Zm0,4.31h3.65v3.65h-3.65Zm4.3-25.89h3.65V649h-3.65Zm0,4.3h3.65v3.66h-3.65Zm0,4.31h3.65v3.65h-3.65Zm0,4.3h3.65v3.65h-3.65Zm0,4.37h3.65v3.65h-3.65Zm0,4.3h3.65v3.66h-3.65Zm0,4.31h3.65v3.65h-3.65Zm4.31-25.89h3.65V649h-3.65Zm0,8.61h3.65v3.65h-3.65Zm4.37-8.61h3.65V649h-3.65Z" transform="translate(-442.3 -645.38)"/>
    <path class="cls-1" d="M933.17,658.29h3.65v3.65h-3.65Zm0,4.37h3.65v3.65h-3.65Zm0,4.3h3.65v3.66h-3.65Zm4.3-13h3.65v3.65h-3.65Zm0,4.3h3.65v3.65h-3.65Zm0,4.37h3.65v3.65h-3.65Zm0,4.3h3.65v3.66h-3.65Zm0,4.31h3.65v3.65h-3.65Zm4.3-17.28h3.66v3.65h-3.66Zm0,8.67h3.66v3.65h-3.66Zm0,8.61h3.66v3.65h-3.66ZM946.08,654h3.65v3.65h-3.65Zm0,8.67h3.65v3.65h-3.65Zm0,8.61h3.65v3.65h-3.65ZM950.45,654h3.65v3.65h-3.65Zm0,8.67h3.65v3.65h-3.65Zm0,8.61h3.65v3.65h-3.65Zm4.3-17.28h3.65v3.65h-3.65Zm0,4.3h3.65v3.65h-3.65Zm0,4.37h3.65v3.65h-3.65Zm0,8.61h3.65v3.65h-3.65Zm4.3-13h3.66v3.65h-3.66Zm0,4.37h3.66v3.65h-3.66Z" transform="translate(-442.3 -645.38)"/>
    <path class="cls-1" d="M967.07,645.38h3.66V649h-3.66Zm0,4.3h3.66v3.66h-3.66Zm0,4.31h3.66v3.65h-3.66Zm0,4.3h3.66v3.65h-3.66Zm0,4.37h3.66v3.65h-3.66Zm0,4.3h3.66v3.66h-3.66Zm0,4.31h3.66v3.65h-3.66Zm4.31-25.89H975V649h-3.65Zm0,4.3H975v3.66h-3.65Zm0,4.31H975v3.65h-3.65Zm0,4.3H975v3.65h-3.65Zm0,4.37H975v3.65h-3.65Zm0,4.3H975v3.66h-3.65Zm0,4.31H975v3.65h-3.65Z" transform="translate(-442.3 -645.38)"/>
    <path class="cls-1" d="M979.33,645.38H983V649h-3.65Zm0,4.3H983v3.66h-3.65Zm0,4.31H983v3.65h-3.65Zm0,4.3H983v3.65h-3.65Zm0,4.37H983v3.65h-3.65Zm0,4.3H983v3.66h-3.65Zm0,4.31H983v3.65h-3.65Zm4.31-25.89h3.65V649h-3.65Zm0,4.3h3.65v3.66h-3.65Zm0,4.31h3.65v3.65h-3.65Zm0,4.3h3.65v3.65h-3.65Zm0,4.37h3.65v3.65h-3.65Zm0,4.3h3.65v3.66h-3.65Zm0,4.31h3.65v3.65h-3.65Z" transform="translate(-442.3 -645.38)"/>
    <path class="cls-1" d="M1025.5,658.29h3.65v3.65h-3.65Zm0,4.37h3.65v3.65h-3.65Zm0,4.3h3.65v3.66h-3.65Zm4.3-13h3.65v3.65h-3.65Zm0,4.3h3.65v3.65h-3.65Zm0,4.37h3.65v3.65h-3.65Zm0,4.3h3.65v3.66h-3.65Zm0,4.31h3.65v3.65h-3.65Zm4.31-17.28h3.65v3.65h-3.65Zm0,17.28h3.65v3.65h-3.65Zm4.3-17.28h3.65v3.65h-3.65Zm0,17.28h3.65v3.65h-3.65Zm4.37-17.28h3.65v3.65h-3.65Zm0,17.28h3.65v3.65h-3.65Zm4.3-17.28h3.65v3.65h-3.65Zm0,4.3h3.65v3.65h-3.65Zm0,4.37h3.65v3.65h-3.65Zm0,4.3h3.65v3.66h-3.65Zm0,4.31h3.65v3.65h-3.65Zm4.31-13H1055v3.65h-3.65Zm0,4.37H1055v3.65h-3.65Zm0,4.3H1055v3.66h-3.65Z" transform="translate(-442.3 -645.38)"/>
    <path class="cls-1" d="M1059.41,654h3.65v3.65h-3.65Zm0,4.3h3.65v3.65h-3.65Zm0,4.37h3.65v3.65h-3.65Zm0,4.3h3.65v3.66h-3.65Zm4.3-13h3.65v3.65h-3.65Zm0,4.3h3.65v3.65h-3.65Zm0,4.37h3.65v3.65h-3.65Zm0,4.3h3.65v3.66h-3.65Zm0,4.31h3.65v3.65h-3.65Zm4.3,0h3.65v3.65H1068Zm4.31,0H1076v3.65h-3.65Zm4.37,0h3.65v3.65h-3.65ZM1081,654h3.65v3.65H1081Zm0,4.3h3.65v3.65H1081Zm0,4.37h3.65v3.65H1081Zm0,4.3h3.65v3.66H1081Zm0,4.31h3.65v3.65H1081Zm4.3-17.28h3.65v3.65h-3.65Zm0,4.3h3.65v3.65h-3.65Zm0,4.37h3.65v3.65h-3.65Zm0,4.3h3.65v3.66h-3.65Zm0,4.31h3.65v3.65h-3.65Z" transform="translate(-442.3 -645.38)"/>
    <path class="cls-1" d="M1093.31,654H1097v3.65h-3.65Zm4.31-8.61h3.65V649h-3.65Zm0,4.3h3.65v3.66h-3.65Zm0,4.31h3.65v3.65h-3.65Zm0,4.3h3.65v3.65h-3.65Zm0,4.37h3.65v3.65h-3.65Zm0,4.3h3.65v3.66h-3.65Zm4.3-21.58h3.65V649h-3.65Zm0,4.3h3.65v3.66h-3.65Zm0,4.31h3.65v3.65h-3.65Zm0,4.3h3.65v3.65h-3.65Zm0,4.37h3.65v3.65h-3.65Zm0,4.3h3.65v3.66h-3.65Zm0,4.31h3.65v3.65h-3.65Zm4.3-17.28h3.66v3.65h-3.66Zm0,17.28h3.66v3.65h-3.66Zm4.37,0h3.65v3.65h-3.65Z" transform="translate(-442.3 -645.38)"/>
    <path class="cls-1" d="M1152.52,658.29h3.65v3.65h-3.65Zm0,4.37h3.65v3.65h-3.65Zm0,4.3h3.65v3.66h-3.65Zm4.3-13h3.65v3.65h-3.65Zm0,4.3h3.65v3.65h-3.65Zm0,4.37h3.65v3.65h-3.65Zm0,4.3h3.65v3.66h-3.65Zm0,4.31h3.65v3.65h-3.65Zm4.31-17.28h3.65v3.65h-3.65Zm0,17.28h3.65v3.65h-3.65Zm4.3-17.28h3.65v3.65h-3.65Zm0,17.28h3.65v3.65h-3.65ZM1169.8,654h3.65v3.65h-3.65Zm0,17.28h3.65v3.65h-3.65Zm4.3-17.28h3.65v3.65h-3.65Zm0,4.3h3.65v3.65h-3.65Zm0,4.37h3.65v3.65h-3.65Zm0,4.3h3.65v3.66h-3.65Zm0,4.31h3.65v3.65h-3.65Zm4.31-13h3.65v3.65h-3.65Zm0,4.37h3.65v3.65h-3.65Zm0,4.3h3.65v3.66h-3.65Z" transform="translate(-442.3 -645.38)"/>
    <path class="cls-1" d="M1186.43,654h3.65v3.65h-3.65Zm4.3-4.31h3.65v3.66h-3.65Zm0,4.31h3.65v3.65h-3.65Zm0,4.3h3.65v3.65h-3.65Zm0,4.37h3.65v3.65h-3.65Zm0,4.3h3.65v3.66h-3.65Zm0,4.31h3.65v3.65h-3.65Zm4.3-25.89h3.66V649H1195Zm0,4.3h3.66v3.66H1195Zm0,4.31h3.66v3.65H1195Zm0,4.3h3.66v3.65H1195Zm0,4.37h3.66v3.65H1195Zm0,4.3h3.66v3.66H1195Zm0,4.31h3.66v3.65H1195Zm4.31-25.89H1203V649h-3.65Zm0,8.61H1203v3.65h-3.65Zm4.37-8.61h3.65V649h-3.65Z" transform="translate(-442.3 -645.38)"/>
    <path class="cls-1" d="M1245.9,654h3.65v3.65h-3.65Zm4.3-8.61h3.65V649h-3.65Zm0,4.3h3.65v3.66h-3.65Zm0,4.31h3.65v3.65h-3.65Zm0,4.3h3.65v3.65h-3.65Zm0,4.37h3.65v3.65h-3.65Zm0,4.3h3.65v3.66h-3.65Zm4.3-21.58h3.65V649h-3.65Zm0,4.3h3.65v3.66h-3.65Zm0,4.31h3.65v3.65h-3.65Zm0,4.3h3.65v3.65h-3.65Zm0,4.37h3.65v3.65h-3.65Zm0,4.3h3.65v3.66h-3.65Zm0,4.31h3.65v3.65h-3.65Zm4.31-17.28h3.65v3.65h-3.65Zm0,17.28h3.65v3.65h-3.65Zm4.36,0h3.66v3.65h-3.66Z" transform="translate(-442.3 -645.38)"/>
    <path class="cls-1" d="M1271.2,645.38h3.65V649h-3.65Zm0,4.3h3.65v3.66h-3.65Zm0,4.31h3.65v3.65h-3.65Zm0,4.3h3.65v3.65h-3.65Zm0,4.37h3.65v3.65h-3.65Zm0,4.3h3.65v3.66h-3.65Zm0,4.31h3.65v3.65h-3.65Zm4.3-25.89h3.65V649h-3.65Zm0,4.3h3.65v3.66h-3.65Zm0,4.31h3.65v3.65h-3.65Zm0,4.3h3.65v3.65h-3.65Zm0,4.37h3.65v3.65h-3.65Zm0,4.3h3.65v3.66h-3.65Zm0,4.31h3.65v3.65h-3.65Zm4.3-17.28h3.65v3.65h-3.65Zm4.31,0h3.65v3.65h-3.65Zm4.36,0h3.66v3.65h-3.66Zm4.31,0h3.65v3.65h-3.65Zm0,4.3h3.65v3.65h-3.65Zm0,4.37h3.65v3.65h-3.65Zm0,4.3h3.65v3.66h-3.65Zm0,4.31h3.65v3.65h-3.65Zm4.3-13h3.65v3.65h-3.65Zm0,4.37h3.65v3.65h-3.65Zm0,4.3h3.65v3.66h-3.65Zm0,4.31h3.65v3.65h-3.65Z" transform="translate(-442.3 -645.38)"/>
    <path class="cls-1" d="M1305.1,658.29h3.65v3.65h-3.65Zm0,4.37h3.65v3.65h-3.65Zm0,4.3h3.65v3.66h-3.65Zm4.31-13h3.65v3.65h-3.65Zm0,4.3h3.65v3.65h-3.65Zm0,4.37h3.65v3.65h-3.65Zm0,4.3h3.65v3.66h-3.65Zm0,4.31h3.65v3.65h-3.65Zm4.3-17.28h3.65v3.65h-3.65Zm0,8.67h3.65v3.65h-3.65Zm0,8.61h3.65v3.65h-3.65ZM1318,654h3.66v3.65H1318Zm0,8.67h3.66v3.65H1318Zm0,8.61h3.66v3.65H1318Zm4.37-17.28H1326v3.65h-3.65Zm0,8.67H1326v3.65h-3.65Zm0,8.61H1326v3.65h-3.65Zm4.31-17.28h3.65v3.65h-3.65Zm0,4.3h3.65v3.65h-3.65Zm0,4.37h3.65v3.65h-3.65Zm0,8.61h3.65v3.65h-3.65Zm4.3-13h3.65v3.65H1331Zm0,4.37h3.65v3.65H1331Z" transform="translate(-442.3 -645.38)"/>
    <path class="cls-1" d="M1372.92,654h3.65v3.65h-3.65Zm0,4.3h3.65v3.65h-3.65Zm0,4.37h3.65v3.65h-3.65Zm0,4.3h3.65v3.66h-3.65Zm0,4.31h3.65v3.65h-3.65Zm4.3-17.28h3.65v3.65h-3.65Zm0,4.3h3.65v3.65h-3.65Zm0,4.37h3.65v3.65h-3.65Zm0,4.3h3.65v3.66h-3.65Zm0,4.31h3.65v3.65h-3.65Zm4.3-17.28h3.66v3.65h-3.66Zm4.31,4.3h3.65v3.65h-3.65Zm0,4.37h3.65v3.65h-3.65Zm0,4.3h3.65v3.66h-3.65Zm0,4.31h3.65v3.65h-3.65ZM1390.2,654h3.65v3.65h-3.65Zm4.3,0h3.65v3.65h-3.65Zm0,4.3h3.65v3.65h-3.65Zm0,4.37h3.65v3.65h-3.65Zm0,4.3h3.65v3.66h-3.65Zm0,4.31h3.65v3.65h-3.65Zm4.3-13h3.66v3.65h-3.66Zm0,4.37h3.66v3.65h-3.66Zm0,4.3h3.66v3.66h-3.66Zm0,4.31h3.66v3.65h-3.66Z" transform="translate(-442.3 -645.38)"/>
    <path class="cls-1" d="M1406.82,667h3.66v3.66h-3.66Zm4.31-13h3.65v3.65h-3.65Zm0,8.67h3.65v3.65h-3.65Zm0,4.3h3.65v3.66h-3.65Zm0,4.31h3.65v3.65h-3.65Zm4.3-17.28h3.65v3.65h-3.65Zm0,8.67h3.65v3.65h-3.65Zm0,8.61h3.65v3.65h-3.65Zm4.31-17.28h3.65v3.65h-3.65Zm0,8.67h3.65v3.65h-3.65Zm0,8.61h3.65v3.65h-3.65ZM1424.1,654h3.66v3.65h-3.66Zm0,8.67h3.66v3.65h-3.66Zm0,8.61h3.66v3.65h-3.66Zm4.31-17.28h3.65v3.65h-3.65Zm0,4.3h3.65v3.65h-3.65Zm0,4.37h3.65v3.65h-3.65Zm0,4.3h3.65v3.66h-3.65Zm0,4.31h3.65v3.65h-3.65Zm4.3-13h3.65v3.65h-3.65Zm0,4.37h3.65v3.65h-3.65Zm0,4.3h3.65v3.66h-3.65Zm0,4.31h3.65v3.65h-3.65Z" transform="translate(-442.3 -645.38)"/>
    <path class="cls-1" d="M1440.73,654h3.65v3.65h-3.65Zm0,4.3h3.65v3.65h-3.65Zm0,4.37h3.65v3.65h-3.65Zm0,4.3h3.65v3.66h-3.65Zm0,4.31h3.65v3.65h-3.65Zm0,4.3h3.65v3.65h-3.65Zm0,4.37h3.65v3.65h-3.65Zm4.31-26h3.65v3.65H1445Zm0,4.3h3.65v3.65H1445Zm0,4.37h3.65v3.65H1445Zm0,4.3h3.65v3.66H1445Zm0,4.31h3.65v3.65H1445Zm0,4.3h3.65v3.65H1445Zm0,4.37h3.65v3.65H1445Zm4.3-26H1453v3.65h-3.65Zm0,17.28H1453v3.65h-3.65Zm4.3-17.28h3.65v3.65h-3.65Zm0,17.28h3.65v3.65h-3.65ZM1458,654h3.65v3.65H1458Zm0,17.28h3.65v3.65H1458Zm4.3-17.28H1466v3.65h-3.66Zm0,4.3H1466v3.65h-3.66Zm0,4.37H1466v3.65h-3.66Zm0,4.3H1466v3.66h-3.66Zm0,4.31H1466v3.65h-3.66Zm4.31-13h3.65v3.65h-3.65Zm0,4.37h3.65v3.65h-3.65Zm0,4.3h3.65v3.66h-3.65Z" transform="translate(-442.3 -645.38)"/>
    <path class="cls-2" d="M693.24,719.22h2.32v2.32h-2.32Zm0,2.77h2.32v2.32h-2.32Zm2.73-5.51h2.32v2.32H696Zm0,2.74h2.32v2.32H696Zm0,2.77h2.32v2.32H696Zm2.74-8.24H701v2.32h-2.31Zm0,2.73H701v2.32h-2.31Zm0,5.51H701v2.32h-2.31Zm2.73-11h2.32v2.32h-2.32Zm0,2.73h2.32v2.32h-2.32Zm0,8.24h2.32v2.32h-2.32Zm2.77-11h2.32v2.32h-2.32Zm0,2.73h2.32v2.32h-2.32Zm0,2.73h2.32v2.32h-2.32Zm0,2.74h2.32v2.32h-2.32Zm0,2.77h2.32v2.32h-2.32Zm0,2.73h2.32V727h-2.32Zm0,2.74h2.32v2.32h-2.32ZM707,711h2.31v2.32H707Zm0,2.73h2.31v2.32H707Zm0,2.73h2.31v2.32H707Zm0,2.74h2.31v2.32H707Zm0,2.77h2.31v2.32H707Zm0,2.73h2.31V727H707Zm0,2.74h2.31v2.32H707Zm2.73-5.47H712v2.32h-2.32Z" transform="translate(-442.3 -645.38)"/>
    <path class="cls-2" d="M714.77,713.75h2.32v2.32h-2.32Zm0,2.73h2.32v2.32h-2.32Zm0,2.74h2.32v2.32h-2.32Zm0,2.77h2.32v2.32h-2.32Zm0,2.73h2.32V727h-2.32ZM717.5,711h2.32v2.32H717.5Zm0,2.73h2.32v2.32H717.5Zm0,2.73h2.32v2.32H717.5Zm0,2.74h2.32v2.32H717.5Zm0,2.77h2.32v2.32H717.5Zm0,2.73h2.32V727H717.5Zm0,2.74h2.32v2.32H717.5ZM720.24,711h2.32v2.32h-2.32Zm0,16.44h2.32v2.32h-2.32ZM723,711h2.32v2.32H723Zm0,16.44h2.32v2.32H723ZM725.75,711h2.31v2.32h-2.31Zm0,2.73h2.31v2.32h-2.31Zm0,2.73h2.31v2.32h-2.31Zm0,2.74h2.31v2.32h-2.31Zm0,2.77h2.31v2.32h-2.31Zm0,2.73h2.31V727h-2.31Zm0,2.74h2.31v2.32h-2.31Zm2.73-13.71h2.32v2.32h-2.32Zm0,2.73h2.32v2.32h-2.32Zm0,2.74h2.32v2.32h-2.32Zm0,2.77h2.32v2.32h-2.32Zm0,2.73h2.32V727h-2.32Z" transform="translate(-442.3 -645.38)"/>
    <path class="cls-2" d="M733.57,719.22h2.32v2.32h-2.32Zm0,2.77h2.32v2.32h-2.32Zm2.74-5.51h2.31v2.32h-2.31Zm0,2.74h2.31v2.32h-2.31Zm0,2.77h2.31v2.32h-2.31Zm2.73-8.24h2.32v2.32H739Zm0,2.73h2.32v2.32H739Zm0,5.51h2.32v2.32H739Zm2.73-11h2.32v2.32h-2.32Zm0,2.73h2.32v2.32h-2.32Zm0,8.24h2.32v2.32h-2.32Zm2.78-11h2.32v2.32h-2.32Zm0,2.73h2.32v2.32h-2.32Zm0,2.73h2.32v2.32h-2.32Zm0,2.74h2.32v2.32h-2.32Zm0,2.77h2.32v2.32h-2.32Zm0,2.73h2.32V727h-2.32Zm0,2.74h2.32v2.32h-2.32ZM747.28,711h2.32v2.32h-2.32Zm0,2.73h2.32v2.32h-2.32Zm0,2.73h2.32v2.32h-2.32Zm0,2.74h2.32v2.32h-2.32Zm0,2.77h2.32v2.32h-2.32Zm0,2.73h2.32V727h-2.32Zm0,2.74h2.32v2.32h-2.32ZM750,722h2.32v2.32H750Z" transform="translate(-442.3 -645.38)"/>
    <path class="cls-2" d="M776.68,719.22H779v2.32h-2.32Zm2.73,0h2.32v2.32h-2.32Zm2.74,0h2.31v2.32h-2.31Zm2.73,0h2.32v2.32h-2.32Zm2.77,0H790v2.32h-2.32Z" transform="translate(-442.3 -645.38)"/>
    <path class="cls-2" d="M814.61,711h2.32v2.32h-2.32Zm0,2.73h2.32v2.32h-2.32Zm0,2.73h2.32v2.32h-2.32Zm0,2.74h2.32v2.32h-2.32Zm0,2.77h2.32v2.32h-2.32Zm0,2.73h2.32V727h-2.32Zm0,2.74h2.32v2.32h-2.32ZM817.34,711h2.32v2.32h-2.32Zm0,2.73h2.32v2.32h-2.32Zm0,2.73h2.32v2.32h-2.32Zm0,2.74h2.32v2.32h-2.32Zm0,2.77h2.32v2.32h-2.32Zm0,2.73h2.32V727h-2.32Zm0,2.74h2.32v2.32h-2.32ZM820.08,711h2.32v2.32h-2.32Zm0,8.2h2.32v2.32h-2.32Zm2.73-8.2h2.32v2.32h-2.32Zm0,8.2h2.32v2.32h-2.32Zm2.77-8.2h2.32v2.32h-2.32Zm0,8.2h2.32v2.32h-2.32Zm2.74-8.2h2.32v2.32h-2.32Zm0,2.73h2.32v2.32h-2.32Zm0,2.73h2.32v2.32h-2.32Zm0,2.74h2.32v2.32h-2.32Zm2.73-5.47h2.32v2.32h-2.32Zm0,2.73h2.32v2.32h-2.32Z" transform="translate(-442.3 -645.38)"/>
    <path class="cls-2" d="M836.14,724.72h2.32V727h-2.32Zm2.74-8.24h2.32v2.32h-2.32Zm0,5.51h2.32v2.32h-2.32Zm0,2.73h2.32V727h-2.32Zm0,2.74h2.32v2.32h-2.32Zm2.73-11h2.32v2.32h-2.32Zm0,5.51h2.32v2.32h-2.32Zm0,5.47h2.32v2.32h-2.32Zm2.73-11h2.32v2.32h-2.32Zm0,5.51h2.32v2.32h-2.32Zm0,5.47h2.32v2.32h-2.32Zm2.78-11h2.32v2.32h-2.32Zm0,5.51h2.32v2.32h-2.32Zm0,5.47h2.32v2.32h-2.32Zm2.73-11h2.32v2.32h-2.32Zm0,2.74h2.32v2.32h-2.32Zm0,2.77h2.32v2.32h-2.32Zm0,2.73h2.32V727h-2.32Zm0,2.74h2.32v2.32h-2.32Zm2.73-8.24h2.32v2.32h-2.32Zm0,2.77h2.32v2.32h-2.32Zm0,2.73h2.32V727h-2.32Zm0,2.74h2.32v2.32h-2.32Z" transform="translate(-442.3 -645.38)"/>
    <path class="cls-2" d="M857.68,719.22H860v2.32h-2.32Zm0,2.77H860v2.32h-2.32Zm0,2.73H860V727h-2.32Zm2.73-8.24h2.32v2.32h-2.32Zm0,2.74h2.32v2.32h-2.32Zm0,2.77h2.32v2.32h-2.32Zm0,2.73h2.32V727h-2.32Zm0,2.74h2.32v2.32h-2.32Zm0,5.5h2.32v2.32h-2.32Zm2.73-16.48h2.32v2.32h-2.32Zm0,11h2.32v2.32h-2.32Zm0,5.5h2.32v2.32h-2.32Zm2.74-16.48h2.31v2.32h-2.31Zm0,11h2.31v2.32h-2.31Zm0,5.5h2.31v2.32h-2.31Zm2.77-16.48H871v2.32h-2.32Zm0,11H871v2.32h-2.32Zm0,5.5H871v2.32h-2.32Zm2.73-16.48h2.32v2.32h-2.32Zm0,2.74h2.32v2.32h-2.32Zm0,2.77h2.32v2.32h-2.32Zm0,2.73h2.32V727h-2.32Zm0,2.74h2.32v2.32h-2.32Zm0,2.73h2.32v2.32h-2.32Zm0,2.77h2.32v2.32h-2.32Zm2.74-13.74h2.32v2.32h-2.32Zm0,2.77h2.32v2.32h-2.32Zm0,2.73h2.32V727h-2.32Zm0,2.74h2.32v2.32h-2.32Zm0,2.73h2.32v2.32h-2.32Z" transform="translate(-442.3 -645.38)"/>
    <path class="cls-2" d="M879.21,719.22h2.32v2.32h-2.32Zm0,2.77h2.32v2.32h-2.32Zm0,2.73h2.32V727h-2.32Zm2.73-8.24h2.32v2.32h-2.32Zm0,2.74h2.32v2.32h-2.32Zm0,2.77h2.32v2.32h-2.32Zm0,2.73h2.32V727h-2.32Zm0,2.74h2.32v2.32h-2.32Zm2.74-11H887v2.32h-2.31Zm0,5.51H887v2.32h-2.31Zm0,5.47H887v2.32h-2.31Zm2.73-11h2.32v2.32h-2.32Zm0,5.51h2.32v2.32h-2.32Zm0,5.47h2.32v2.32h-2.32Zm2.77-11h2.32v2.32h-2.32Zm0,5.51h2.32v2.32h-2.32Zm0,5.47h2.32v2.32h-2.32Zm2.74-11h2.31v2.32h-2.31Zm0,2.74h2.31v2.32h-2.31Zm0,2.77h2.31v2.32h-2.31Zm0,5.47h2.31v2.32h-2.31Zm2.73-8.24H898v2.32h-2.32Zm0,2.77H898v2.32h-2.32Z" transform="translate(-442.3 -645.38)"/>
    <path class="cls-2" d="M922.27,719.22h2.32v2.32h-2.32Zm0,2.77h2.32v2.32h-2.32Zm0,2.73h2.32V727h-2.32Zm2.74-8.24h2.32v2.32H925Zm0,2.74h2.32v2.32H925Zm0,2.77h2.32v2.32H925Zm0,2.73h2.32V727H925Zm0,2.74h2.32v2.32H925Zm2.73-11h2.32v2.32h-2.32Zm0,11h2.32v2.32h-2.32Zm2.73-11h2.32v2.32h-2.32Zm0,11h2.32v2.32h-2.32Zm2.78-11h2.32v2.32h-2.32Zm0,11h2.32v2.32h-2.32Zm2.73-11h2.32v2.32H936Zm0,2.74h2.32v2.32H936Zm0,5.5h2.32V727H936Zm0,2.74h2.32v2.32H936Zm2.73-8.24H941v2.32h-2.32Zm0,5.5H941V727h-2.32Z" transform="translate(-442.3 -645.38)"/>
    <path class="cls-2" d="M943.81,719.22h2.32v2.32h-2.32Zm0,2.77h2.32v2.32h-2.32Zm0,2.73h2.32V727h-2.32Zm2.73-8.24h2.32v2.32h-2.32Zm0,2.74h2.32v2.32h-2.32Zm0,2.77h2.32v2.32h-2.32Zm0,2.73h2.32V727h-2.32Zm0,2.74h2.32v2.32h-2.32Zm2.73-11h2.32v2.32h-2.32Zm0,11h2.32v2.32h-2.32Zm2.74-11h2.32v2.32H952Zm0,11h2.32v2.32H952Zm2.77-11h2.32v2.32h-2.32Zm0,11h2.32v2.32h-2.32Zm2.74-11h2.31v2.32h-2.31Zm0,2.74h2.31v2.32h-2.31Zm0,2.77h2.31v2.32h-2.31Zm0,2.73h2.31V727h-2.31Zm0,2.74h2.31v2.32h-2.31Zm2.73-8.24h2.32v2.32h-2.32Zm0,2.77h2.32v2.32h-2.32Zm0,2.73h2.32V727h-2.32Z" transform="translate(-442.3 -645.38)"/>
    <path class="cls-2" d="M965.34,716.48h2.32v2.32h-2.32Zm0,2.74h2.32v2.32h-2.32Zm0,2.77h2.32v2.32h-2.32Zm0,2.73h2.32V727h-2.32Zm2.73-8.24h2.32v2.32h-2.32Zm0,2.74h2.32v2.32h-2.32Zm0,2.77h2.32v2.32h-2.32Zm0,2.73h2.32V727h-2.32Zm0,2.74h2.32v2.32h-2.32Zm2.74,0h2.32v2.32h-2.32Zm2.73,0h2.32v2.32h-2.32Zm2.77,0h2.32v2.32h-2.32Zm2.74-11h2.32v2.32h-2.32Zm0,2.74h2.32v2.32h-2.32Zm0,2.77h2.32v2.32h-2.32Zm0,2.73h2.32V727h-2.32Zm0,2.74h2.32v2.32h-2.32Zm2.73-11h2.32v2.32h-2.32Zm0,2.74h2.32v2.32h-2.32Zm0,2.77h2.32v2.32h-2.32Zm0,2.73h2.32V727h-2.32Zm0,2.74h2.32v2.32h-2.32Z" transform="translate(-442.3 -645.38)"/>
    <path class="cls-2" d="M986.87,711h2.32v2.32h-2.32Zm0,2.73h2.32v2.32h-2.32Zm0,2.73h2.32v2.32h-2.32Zm0,2.74h2.32v2.32h-2.32Zm0,2.77h2.32v2.32h-2.32Zm0,2.73h2.32V727h-2.32Zm0,2.74h2.32v2.32h-2.32ZM989.61,711h2.32v2.32h-2.32Zm0,2.73h2.32v2.32h-2.32Zm0,2.73h2.32v2.32h-2.32Zm0,2.74h2.32v2.32h-2.32Zm0,2.77h2.32v2.32h-2.32Zm0,2.73h2.32V727h-2.32Zm0,2.74h2.32v2.32h-2.32Z" transform="translate(-442.3 -645.38)"/>
    <path class="cls-2" d="M994.66,719.22H997v2.32h-2.32Zm0,2.77H997v2.32h-2.32Zm0,2.73H997V727h-2.32Zm2.73-8.24h2.32v2.32h-2.32Zm0,2.74h2.32v2.32h-2.32Zm0,2.77h2.32v2.32h-2.32Zm0,2.73h2.32V727h-2.32Zm0,2.74h2.32v2.32h-2.32Zm2.73-11h2.32v2.32h-2.32Zm0,11h2.32v2.32h-2.32Zm2.74-11h2.32v2.32h-2.32Zm0,11h2.32v2.32h-2.32Zm2.77-11H1008v2.32h-2.32Zm0,11H1008v2.32h-2.32Zm2.74-16.44h2.31v2.32h-2.31Zm0,2.73h2.31v2.32h-2.31Zm0,2.73h2.31v2.32h-2.31Zm0,2.74h2.31v2.32h-2.31Zm0,2.77h2.31v2.32h-2.31Zm0,2.73h2.31V727h-2.31Zm0,2.74h2.31v2.32h-2.31ZM1011.1,711h2.32v2.32h-2.32Zm0,2.73h2.32v2.32h-2.32Zm0,2.73h2.32v2.32h-2.32Zm0,2.74h2.32v2.32h-2.32Zm0,2.77h2.32v2.32h-2.32Zm0,2.73h2.32V727h-2.32Zm0,2.74h2.32v2.32h-2.32Z" transform="translate(-442.3 -645.38)"/>
    <path class="cls-2" d="M1016.19,716.48h2.32v2.32h-2.32Zm0,2.74h2.32v2.32h-2.32Zm0,2.77h2.32v2.32h-2.32Zm0,2.73h2.32V727h-2.32Zm0,2.74h2.32v2.32h-2.32Zm2.73-11h2.32v2.32h-2.32Zm0,2.74h2.32v2.32h-2.32Zm0,2.77h2.32v2.32h-2.32Zm0,2.73h2.32V727h-2.32Zm0,2.74h2.32v2.32h-2.32Zm2.74-11H1024v2.32h-2.32Zm2.73,0h2.32v2.32h-2.32Zm2.78,0h2.31v2.32h-2.31Zm0,2.74h2.31v2.32h-2.31Zm0,2.77h2.31v2.32h-2.31Zm0,2.73h2.31V727h-2.31Zm0,2.74h2.31v2.32h-2.31Zm2.73-8.24h2.32v2.32h-2.32Zm0,2.77h2.32v2.32h-2.32Zm0,2.73h2.32V727h-2.32Zm0,2.74h2.32v2.32h-2.32Z" transform="translate(-442.3 -645.38)"/>
    <path class="cls-2" d="M1042.53,710.4a47.88,47.88,0,0,1-3.89,9.81l-2.32.29a59.12,59.12,0,0,0,2.44-9.73Z" transform="translate(-442.3 -645.38)"/>
    <path class="cls-2" d="M1043.48,716.48h2.32v2.32h-2.32Zm2.73-5.46h2.32v2.32h-2.32Zm0,2.73h2.32v2.32h-2.32Zm0,2.73h2.32v2.32h-2.32Zm0,2.74h2.32v2.32h-2.32Zm0,2.77h2.32v2.32h-2.32Zm0,2.73h2.32V727h-2.32ZM1049,711h2.32v2.32H1049Zm0,2.73h2.32v2.32H1049Zm0,2.73h2.32v2.32H1049Zm0,2.74h2.32v2.32H1049Zm0,2.77h2.32v2.32H1049Zm0,2.73h2.32V727H1049Zm0,2.74h2.32v2.32H1049Zm2.73-11H1054v2.32h-2.32Zm0,11H1054v2.32h-2.32Zm2.77,0h2.32v2.32h-2.32Z" transform="translate(-442.3 -645.38)"/>
    <path class="cls-2" d="M1081.08,711h2.32v2.32h-2.32Zm0,2.73h2.32v2.32h-2.32Zm0,2.73h2.32v2.32h-2.32Zm0,2.74h2.32v2.32h-2.32Zm0,2.77h2.32v2.32h-2.32Zm0,2.73h2.32V727h-2.32Zm0,2.74h2.32v2.32h-2.32Zm2.73-16.44h2.32v2.32h-2.32Zm0,2.73h2.32v2.32h-2.32Zm0,2.73h2.32v2.32h-2.32Zm0,2.74h2.32v2.32h-2.32Zm0,2.77h2.32v2.32h-2.32Zm0,2.73h2.32V727h-2.32Zm0,2.74h2.32v2.32h-2.32Zm2.74-11h2.32v2.32h-2.32Zm0,11h2.32v2.32h-2.32Zm2.73-11h2.32v2.32h-2.32Zm0,11h2.32v2.32h-2.32Zm2.77-11h2.32v2.32h-2.32Zm0,11h2.32v2.32h-2.32Zm2.74-11h2.32v2.32h-2.32Zm0,2.74h2.32v2.32h-2.32Zm0,2.77h2.32v2.32h-2.32Zm0,2.73h2.32V727h-2.32Zm0,2.74h2.32v2.32h-2.32Zm2.73-8.24h2.32v2.32h-2.32Zm0,2.77h2.32v2.32h-2.32Zm0,2.73h2.32V727h-2.32Z" transform="translate(-442.3 -645.38)"/>
    <path class="cls-2" d="M1102.61,719.22h2.32v2.32h-2.32Zm0,2.77h2.32v2.32h-2.32Zm0,2.73h2.32V727h-2.32Zm2.74-8.24h2.32v2.32h-2.32Zm0,2.74h2.32v2.32h-2.32Zm0,2.77h2.32v2.32h-2.32Zm0,2.73h2.32V727h-2.32Zm0,2.74h2.32v2.32h-2.32Zm2.73-11h2.32v2.32h-2.32Zm0,5.51h2.32v2.32h-2.32Zm0,5.47h2.32v2.32h-2.32Zm2.73-11h2.32v2.32h-2.32Zm0,5.51h2.32v2.32h-2.32Zm0,5.47h2.32v2.32h-2.32Zm2.78-11h2.32v2.32h-2.32Zm0,5.51h2.32v2.32h-2.32Zm0,5.47h2.32v2.32h-2.32Zm2.73-11h2.32v2.32h-2.32Zm0,2.74h2.32v2.32h-2.32Zm0,2.77h2.32v2.32h-2.32Zm0,5.47h2.32v2.32h-2.32Zm2.73-8.24h2.32v2.32h-2.32Zm0,2.77h2.32v2.32h-2.32Z" transform="translate(-442.3 -645.38)"/>
    <path class="cls-2" d="M1145.68,716.48H1148v2.32h-2.32Zm2.73-2.73h2.32v2.32h-2.32Zm0,2.73h2.32v2.32h-2.32Zm0,2.74h2.32v2.32h-2.32Zm0,2.77h2.32v2.32h-2.32Zm0,2.73h2.32V727h-2.32Zm0,2.74h2.32v2.32h-2.32Zm2.74-16.44h2.31v2.32h-2.31Zm0,2.73h2.31v2.32h-2.31Zm0,2.73h2.31v2.32h-2.31Zm0,2.74h2.31v2.32h-2.31Zm0,2.77h2.31v2.32h-2.31Zm0,2.73h2.31V727h-2.31Zm0,2.74h2.31v2.32h-2.31Zm2.73-16.44h2.32v2.32h-2.32Zm0,5.46h2.32v2.32h-2.32Zm2.77-5.46H1159v2.32h-2.32Z" transform="translate(-442.3 -645.38)"/>
    <path class="cls-2" d="M1161.91,719.22h2.32v2.32h-2.32Zm0,2.77h2.32v2.32h-2.32Zm0,2.73h2.32V727h-2.32Zm2.73-8.24H1167v2.32h-2.32Zm0,2.74H1167v2.32h-2.32Zm0,2.77H1167v2.32h-2.32Zm0,2.73H1167V727h-2.32Zm0,2.74H1167v2.32h-2.32Zm2.74-11h2.32v2.32h-2.32Zm0,11h2.32v2.32h-2.32Zm2.73-11h2.32v2.32h-2.32Zm0,11h2.32v2.32h-2.32Zm2.78-11h2.32v2.32h-2.32Zm0,11h2.32v2.32h-2.32Zm2.73-11h2.32v2.32h-2.32Zm0,2.74h2.32v2.32h-2.32Zm0,2.77h2.32v2.32h-2.32Zm0,2.73h2.32V727h-2.32Zm0,2.74h2.32v2.32h-2.32Zm2.73-8.24h2.32v2.32h-2.32Zm0,2.77h2.32v2.32h-2.32Zm0,2.73h2.32V727h-2.32Z" transform="translate(-442.3 -645.38)"/>
    <path class="cls-2" d="M1183.44,716.48h2.32v2.32h-2.32Zm0,2.74h2.32v2.32h-2.32Zm0,2.77h2.32v2.32h-2.32Zm0,2.73h2.32V727h-2.32Zm2.74-8.24h2.32v2.32h-2.32Zm0,2.74h2.32v2.32h-2.32Zm0,2.77h2.32v2.32h-2.32Zm0,2.73h2.32V727h-2.32Zm0,2.74h2.32v2.32h-2.32Zm2.73,0h2.32v2.32h-2.32Zm2.73,0H1194v2.32h-2.32Zm2.78,0h2.32v2.32h-2.32Zm2.73-11h2.32v2.32h-2.32Zm0,2.74h2.32v2.32h-2.32Zm0,2.77h2.32v2.32h-2.32Zm0,2.73h2.32V727h-2.32Zm0,2.74h2.32v2.32h-2.32Zm2.73-11h2.32v2.32h-2.32Zm0,2.74h2.32v2.32h-2.32Zm0,2.77h2.32v2.32h-2.32Zm0,2.73h2.32V727h-2.32Zm0,2.74h2.32v2.32h-2.32Z" transform="translate(-442.3 -645.38)"/>
    <path class="cls-2" d="M1205,716.48h2.32v2.32H1205Zm0,2.74h2.32v2.32H1205Zm0,2.77h2.32v2.32H1205Zm0,2.73h2.32V727H1205Zm0,2.74h2.32v2.32H1205Zm2.73-11H1210v2.32h-2.32Zm0,2.74H1210v2.32h-2.32Zm0,2.77H1210v2.32h-2.32Zm0,2.73H1210V727h-2.32Zm0,2.74H1210v2.32h-2.32Zm2.73-11h2.32v2.32h-2.32Zm2.74,0h2.32v2.32h-2.32Zm2.77,0h2.32v2.32H1216Zm0,2.74h2.32v2.32H1216Zm0,2.77h2.32v2.32H1216Zm0,2.73h2.32V727H1216Zm0,2.74h2.32v2.32H1216Zm2.73-8.24H1221v2.32h-2.32Zm0,2.77H1221v2.32h-2.32Zm0,2.73H1221V727h-2.32Zm0,2.74H1221v2.32h-2.32Z" transform="translate(-442.3 -645.38)"/>
    <path class="cls-2" d="M1223.7,719.22H1226v2.32h-2.31Zm0,2.77H1226v2.32h-2.31Zm0,2.73H1226V727h-2.31Zm2.73-8.24h2.32v2.32h-2.32Zm0,2.74h2.32v2.32h-2.32Zm0,2.77h2.32v2.32h-2.32Zm0,2.73h2.32V727h-2.32Zm0,2.74h2.32v2.32h-2.32Zm2.73-11h2.32v2.32h-2.32Zm0,11h2.32v2.32h-2.32Zm2.73-11h2.32v2.32h-2.32Zm0,11h2.32v2.32h-2.32Zm2.78-11H1237v2.32h-2.32Zm0,11H1237v2.32h-2.32ZM1237.4,711h2.32v2.32h-2.32Zm0,2.73h2.32v2.32h-2.32Zm0,2.73h2.32v2.32h-2.32Zm0,2.74h2.32v2.32h-2.32Zm0,2.77h2.32v2.32h-2.32Zm0,2.73h2.32V727h-2.32Zm0,2.74h2.32v2.32h-2.32Zm2.73-16.44h2.32v2.32h-2.32Zm0,2.73h2.32v2.32h-2.32Zm0,2.73h2.32v2.32h-2.32Zm0,2.74h2.32v2.32h-2.32Zm0,2.77h2.32v2.32h-2.32Zm0,2.73h2.32V727h-2.32Zm0,2.74h2.32v2.32h-2.32Z" transform="translate(-442.3 -645.38)"/>
  </g>
  <g>
    <path class="cls-3" d="M842.9,778.36h3.18v3.17H842.9Zm0,3.74h3.18v3.17H842.9Zm0,3.74h3.18V789H842.9Zm0,3.79h3.18v3.18H842.9Zm0,3.74h3.18v3.17H842.9Zm3.74-18.75h3.17v3.17h-3.17Zm0,3.74h3.17v3.17h-3.17Zm0,3.74h3.17v3.17h-3.17Zm0,3.74h3.17V789h-3.17Zm0,3.79h3.17v3.18h-3.17Zm0,3.74h3.17v3.17h-3.17Zm0,3.74h3.17v3.17h-3.17Zm3.74-22.49h3.17v3.17h-3.17Zm0,22.49h3.17v3.17h-3.17Zm3.74-22.49h3.17v3.17h-3.17Zm0,22.49h3.17v3.17h-3.17Zm3.8-22.49h3.17v3.17h-3.17Zm0,22.49h3.17v3.17h-3.17Zm3.73-22.49h3.18v3.17h-3.18Zm0,3.74h3.18v3.17h-3.18Zm0,15h3.18v3.17h-3.18Zm0,3.74h3.18v3.17h-3.18Zm3.74-18.75h3.18v3.17h-3.18Zm0,15h3.18v3.17h-3.18Z" transform="translate(-442.3 -645.38)"/>
    <path class="cls-3" d="M872.36,785.84h3.17V789h-3.17Zm0,3.79h3.17v3.18h-3.17Zm0,3.74h3.17v3.17h-3.17Zm3.74-11.27h3.17v3.17H876.1Zm0,3.74h3.17V789H876.1Zm0,3.79h3.17v3.18H876.1Zm0,3.74h3.17v3.17H876.1Zm0,3.74h3.17v3.17H876.1Zm3.74-15H883v3.17h-3.17Zm0,15H883v3.17h-3.17Zm3.74-15h3.17v3.17h-3.17Zm0,15h3.17v3.17h-3.17Zm3.79-15h3.18v3.17h-3.18Zm0,15h3.18v3.17h-3.18Zm3.74-15h3.17v3.17h-3.17Zm0,3.74h3.17V789h-3.17Zm0,3.79h3.17v3.18h-3.17Zm0,3.74h3.17v3.17h-3.17Zm0,3.74h3.17v3.17h-3.17Zm3.74-11.27H898V789h-3.17Zm0,3.79H898v3.18h-3.17Zm0,3.74H898v3.17h-3.17Z" transform="translate(-442.3 -645.38)"/>
    <path class="cls-3" d="M901.82,782.1H905v3.17h-3.17Zm0,3.74H905V789h-3.17Zm0,3.79H905v3.18h-3.17Zm0,3.74H905v3.17h-3.17Zm0,3.74H905v3.17h-3.17Zm3.74-15h3.17v3.17h-3.17Zm0,3.74h3.17V789h-3.17Zm0,3.79h3.17v3.18h-3.17Zm0,3.74h3.17v3.17h-3.17Zm0,3.74h3.17v3.17h-3.17Zm3.74-15h3.17v3.17H909.3Zm3.74,0h3.17v3.17H913Zm3.79,0H920v3.17h-3.17Zm0,3.74H920V789h-3.17Zm0,3.79H920v3.18h-3.17Zm0,3.74H920v3.17h-3.17Zm0,3.74H920v3.17h-3.17Zm3.74-11.27h3.17V789h-3.17Zm0,3.79h3.17v3.18h-3.17Zm0,3.74h3.17v3.17h-3.17Zm0,3.74h3.17v3.17h-3.17Z" transform="translate(-442.3 -645.38)"/>
    <path class="cls-3" d="M927.42,782.1h3.18v3.17h-3.18Zm3.74-7.48h3.17v3.17h-3.17Zm0,3.74h3.17v3.17h-3.17Zm0,3.74h3.17v3.17h-3.17Zm0,3.74h3.17V789h-3.17Zm0,3.79h3.17v3.18h-3.17Zm0,3.74h3.17v3.17h-3.17Zm3.74-18.75h3.17v3.17H934.9Zm0,3.74h3.17v3.17H934.9Zm0,3.74h3.17v3.17H934.9Zm0,3.74h3.17V789H934.9Zm0,3.79h3.17v3.18H934.9Zm0,3.74h3.17v3.17H934.9Zm0,3.74h3.17v3.17H934.9Zm3.74-15h3.17v3.17h-3.17Zm0,15h3.17v3.17h-3.17Zm3.8,0h3.17v3.17h-3.17Z" transform="translate(-442.3 -645.38)"/>
    <path class="cls-3" d="M949.4,774.62h3.18v3.17H949.4Zm0,7.48h3.18v3.17H949.4Zm0,3.74h3.18V789H949.4Zm0,3.79h3.18v3.18H949.4Zm0,3.74h3.18v3.17H949.4Zm0,3.74h3.18v3.17H949.4Zm3.74-22.49h3.17v3.17h-3.17Zm0,7.48h3.17v3.17h-3.17Zm0,3.74h3.17V789h-3.17Zm0,3.79h3.17v3.18h-3.17Zm0,3.74h3.17v3.17h-3.17Zm0,3.74h3.17v3.17h-3.17Z" transform="translate(-442.3 -645.38)"/>
    <path class="cls-3" d="M960.05,782.1h3.18v3.17h-3.18Zm0,3.74h3.18V789h-3.18Zm0,3.79h3.18v3.18h-3.18Zm0,3.74h3.18v3.17h-3.18Zm0,3.74h3.18v3.17h-3.18Zm3.74-15H967v3.17h-3.17Zm0,3.74H967V789h-3.17Zm0,3.79H967v3.18h-3.17Zm0,3.74H967v3.17h-3.17Zm0,3.74H967v3.17h-3.17Zm3.74-15h3.17v3.17h-3.17Zm3.74,0h3.17v3.17h-3.17Zm3.8,0h3.17v3.17h-3.17Zm0,3.74h3.17V789h-3.17Zm0,3.79h3.17v3.18h-3.17Zm0,3.74h3.17v3.17h-3.17Zm0,3.74h3.17v3.17h-3.17Zm3.73-11.27H982V789H978.8Zm0,3.79H982v3.18H978.8Zm0,3.74H982v3.17H978.8Zm0,3.74H982v3.17H978.8Z" transform="translate(-442.3 -645.38)"/>
    <path class="cls-3" d="M985.66,782.1h3.17v3.17h-3.17Zm0,3.74h3.17V789h-3.17Zm0,3.79h3.17v3.18h-3.17Zm0,3.74h3.17v3.17h-3.17Zm3.74-11.27h3.17v3.17H989.4Zm0,3.74h3.17V789H989.4Zm0,3.79h3.17v3.18H989.4Zm0,3.74h3.17v3.17H989.4Zm0,3.74h3.17v3.17H989.4Zm3.74,0h3.17v3.17h-3.17Zm3.74,0h3.17v3.17h-3.17Zm3.79,0h3.17v3.17h-3.17Zm3.74-15h3.17v3.17h-3.17Zm0,3.74h3.17V789h-3.17Zm0,3.79h3.17v3.18h-3.17Zm0,3.74h3.17v3.17h-3.17Zm0,3.74h3.17v3.17h-3.17Zm3.74-15h3.17v3.17h-3.17Zm0,3.74h3.17V789h-3.17Zm0,3.79h3.17v3.18h-3.17Zm0,3.74h3.17v3.17h-3.17Zm0,3.74h3.17v3.17h-3.17Z" transform="translate(-442.3 -645.38)"/>
    <path class="cls-3" d="M1015.12,785.84h3.17V789h-3.17Zm0,3.79h3.17v3.18h-3.17Zm0,3.74h3.17v3.17h-3.17Zm3.73-11.27H1022v3.17h-3.18Zm0,3.74H1022V789h-3.18Zm0,3.79H1022v3.18h-3.18Zm0,3.74H1022v3.17h-3.18Zm0,3.74H1022v3.17h-3.18Zm3.74-15h3.18v3.17h-3.18Zm0,7.53h3.18v3.18h-3.18Zm0,7.48h3.18v3.17h-3.18Zm3.74-15h3.17v3.17h-3.17Zm0,7.53h3.17v3.18h-3.17Zm0,7.48h3.17v3.17h-3.17Zm3.8-15h3.17v3.17h-3.17Zm0,7.53h3.17v3.18h-3.17Zm0,7.48h3.17v3.17h-3.17Zm3.74-15H1037v3.17h-3.17Zm0,3.74H1037V789h-3.17Zm0,3.79H1037v3.18h-3.17Zm0,7.48H1037v3.17h-3.17Zm3.74-11.27h3.17V789h-3.17Zm0,3.79h3.17v3.18h-3.17Z" transform="translate(-442.3 -645.38)"/>
    <path class="cls-3" d="M1044.57,778.36h3.18v3.17h-3.18Zm3.74-3.74h3.17v3.17h-3.17Zm0,3.74h3.17v3.17h-3.17Zm3.74-3.74h3.17v3.17h-3.17Zm0,11.22h3.17V789h-3.17Zm0,7.53h3.17v3.17h-3.17Zm0,3.74h3.17v3.17h-3.17Zm3.74-22.49H1059v3.17h-3.17Zm0,7.48H1059v3.17h-3.17Zm0,3.74H1059V789h-3.17Zm0,7.53H1059v3.17h-3.17Zm0,3.74H1059v3.17h-3.17Zm3.8-22.49h3.17v3.17h-3.17Zm0,3.74h3.17v3.17h-3.17Zm0,3.74h3.17v3.17h-3.17Zm3.73-3.74h3.18v3.17h-3.18Z" transform="translate(-442.3 -645.38)"/>
  </g>
</svg>
