<svg id="Layer_4" data-name="Layer 4" xmlns="http://www.w3.org/2000/svg" viewBox="0 0 84.58 25.66">
  <defs>
    <style>
      .cls-1 {
        fill: #7200dd;
      }
    </style>
  </defs>
  <g>
    <path class="cls-1" d="M914.28,848.54h3.17v3.18h-3.17Zm0,3.74h3.17v3.18h-3.17Zm0,3.74h3.17v3.17h-3.17Zm3.74-7.48h3.17v3.18H918Zm0,3.74h3.17v3.18H918Zm0,3.74h3.17v3.17H918Zm0,3.74h3.17v3.17H918Zm3.74,0h3.17v3.17h-3.17Zm0,3.8h3.17v3.17h-3.17Zm0,3.74h3.17v3.17h-3.17Zm0,3.73h3.17v3.18h-3.17Zm3.74-11.27h3.17v3.17H925.5Zm0,3.8h3.17v3.17H925.5Zm0,3.74h3.17v3.17H925.5Zm0,3.73h3.17v3.18H925.5Zm3.79-22.49h3.17v3.18h-3.17Zm0,3.74h3.17v3.18h-3.17Zm0,3.74h3.17v3.17h-3.17Zm0,3.74h3.17v3.17h-3.17ZM933,848.54h3.17v3.18H933Zm0,3.74h3.17v3.18H933Zm0,3.74h3.17v3.17H933Z" transform="translate(-914.28 -848.54)"/>
    <path class="cls-1" d="M943.74,848.54h3.17v3.18h-3.17Zm0,3.74h3.17v3.18h-3.17Zm0,3.74h3.17v3.17h-3.17Zm0,3.74h3.17v3.17h-3.17Zm0,3.8h3.17v3.17h-3.17Zm0,3.74h3.17v3.17h-3.17Zm0,3.73h3.17v3.18h-3.17Zm3.74-22.49h3.17v3.18h-3.17Zm0,3.74h3.17v3.18h-3.17Zm0,3.74h3.17v3.17h-3.17Zm0,3.74h3.17v3.17h-3.17Zm0,3.8h3.17v3.17h-3.17Zm0,3.74h3.17v3.17h-3.17Zm0,3.73h3.17v3.18h-3.17Zm3.74-22.49h3.17v3.18h-3.17Zm0,11.22h3.17v3.17h-3.17Zm0,11.27h3.17v3.18h-3.17ZM955,848.54h3.18v3.18H955Zm0,11.22h3.18v3.17H955ZM955,871h3.18v3.18H955Zm3.8-22.49h3.17v3.18h-3.17Zm0,11.22h3.17v3.17h-3.17Zm0,11.27h3.17v3.18h-3.17Zm3.74-22.49h3.17v3.18h-3.17Zm0,11.22h3.17v3.17h-3.17Zm0,11.27h3.17v3.18h-3.17Zm3.74-22.49h3.17v3.18h-3.17Zm0,22.49h3.17v3.18h-3.17Z" transform="translate(-914.28 -848.54)"/>
    <path class="cls-1" d="M973.2,852.28h3.17v3.18H973.2Zm0,3.74h3.17v3.17H973.2Zm0,11.28h3.17v3.17H973.2Zm3.73-18.76h3.18v3.18h-3.18Zm0,3.74h3.18v3.18h-3.18Zm0,3.74h3.18v3.17h-3.18Zm0,3.74h3.18v3.17h-3.18Zm0,7.54h3.18v3.17h-3.18Zm0,3.73h3.18v3.18h-3.18Zm3.74-22.49h3.18v3.18h-3.18Zm0,11.22h3.18v3.17h-3.18Zm0,11.27h3.18v3.18h-3.18Zm3.74-22.49h3.17v3.18h-3.17Zm0,11.22h3.17v3.17h-3.17Zm0,11.27h3.17v3.18h-3.17Zm3.8-22.49h3.17v3.18h-3.17Zm0,11.22h3.17v3.17h-3.17Zm0,11.27h3.17v3.18h-3.17ZM992,848.54h3.17v3.18H992Zm0,3.74h3.17v3.18H992Zm0,7.48h3.17v3.17H992Zm0,3.8h3.17v3.17H992Zm0,3.74h3.17v3.17H992Zm0,3.73h3.17v3.18H992Zm3.74-18.75h3.17v3.18h-3.17Zm0,11.28h3.17v3.17h-3.17Zm0,3.74h3.17v3.17h-3.17Z" transform="translate(-914.28 -848.54)"/>
  </g>
</svg>
