<svg id="Layer_1" data-name="Layer 1" xmlns="http://www.w3.org/2000/svg" viewBox="0 0 854.33 181.22">
  <defs>
    <style>
      .cls-1 {
        fill: #fff;
      }
    </style>
  </defs>
  <rect class="cls-1" x="191.92" y="11.33" width="2.56" height="169.89"/>
  <path class="cls-1" d="M11.81,106.79V85.93c1.93-3.18,4.19-5.81,8.41-5.56a15.44,15.44,0,0,0,4.61-.09,4.59,4.59,0,0,0,2.89-2.09c2.82-7,5.42-14,8.35-21.76-.89-.87-2.49-2.33-4-3.89-3.77-3.95-3.82-8.33-.05-12.26q5.2-5.43,10.62-10.65c3.87-3.74,8.36-3.7,12.24.12A44.47,44.47,0,0,1,58.45,34c7.6-3,14-6,20.69-8.1,3-1,4-2.16,3.59-5-.66-5,.73-9.08,5.57-11.44h20.86c3.13,1.94,5.85,4.15,5.59,8.38a16.14,16.14,0,0,0,.08,4.61,4.69,4.69,0,0,0,2.07,3c7,2.81,14,5.39,22.22,8.48a42.43,42.43,0,0,1,3.44-4.13c3.87-3.83,8.34-3.87,12.24-.12,3.7,3.57,7.35,7.2,10.89,10.93s3.38,8.07-.09,11.68A41,41,0,0,1,161,56c3.08,7.71,6,14.13,8.15,20.8.95,2.94,2.08,4,5,3.61,5-.68,9.07.77,11.49,5.54v20.86c-2,3.11-4.16,5.84-8.4,5.57a25.3,25.3,0,0,0-5,.06,3.16,3.16,0,0,0-2.28,1.36c-2.89,7.34-5.64,14.73-8.58,22.49,1.05,1,2.55,2.41,4,3.9,3.77,4,3.83,8.34.07,12.26q-5.2,5.43-10.61,10.66c-3.88,3.74-8.37,3.71-12.25-.1a46.3,46.3,0,0,1-3.61-4.32c-7.54,3-14,6-20.61,8.15-2.94,1-4,2.09-3.62,5,.69,5-.78,9.07-5.57,11.47H88.3c-3.18-1.91-5.83-4.16-5.59-8.38a15.78,15.78,0,0,0-.08-4.61,4.62,4.62,0,0,0-2.1-2.91c-7-2.84-14-5.45-22.16-8.56A42,42,0,0,1,54.89,163c-3.88,3.81-8.37,3.84-12.24.1-3.7-3.58-7.34-7.21-10.89-10.94-3.4-3.57-3.38-8.07.1-11.66a43.19,43.19,0,0,1,4.58-3.77c-3.09-7.68-6-14.1-8.17-20.76-.95-2.95-2.06-4-5-3.63C18.3,113,14.21,111.62,11.81,106.79ZM163.47,46.57a8,8,0,0,0-.95-2c-4-4-7.89-8.13-12.09-11.91-.69-.61-3-.24-4,.48a43.11,43.11,0,0,0-5.53,5.37c-1.53,1.64-3,2.05-5,.69a72.08,72.08,0,0,0-22.95-9.7c-1.23-.3-2.66-2.19-2.92-3.55-.47-2.48-.14-5.12-.14-7.7,0-2.36-1.18-3.64-3.51-3.67-5-.07-10-.06-15.06,0-2.48,0-3.79,1.26-3.74,3.84s-.08,4.9,0,7.34-.92,3.3-3.18,4c-5.5,1.67-11,3.59-16.3,5.72C64.94,36.67,61.8,40,59,39.66s-5.23-4.14-7.74-6.5c-1.72-1.61-3.32-1.77-5,0q-5.31,5.34-10.66,10.63c-1.88,1.85-1.69,3.57.11,5.32s3.42,3.51,5.21,5.16,1.56,3,.61,5.07c-3.37,7.44-6.57,15-9.41,22.64-.88,2.37-1.8,3.29-4.27,3.3-11.9,0-11-1.88-11,11.26,0,12.5-1,11.07,10.88,11,2.44,0,3.45.87,4.34,3.25,2.86,7.65,6,15.2,9.4,22.65.94,2.09,1.06,3.37-.53,5.08-7.63,8.27-7.61,8.32.33,16.19,8.48,8.41,6.51,8.3,14.82,0,1.94-1.94,3.35-2.11,6-.87,7.26,3.43,14.75,6.42,22.28,9.25,2.15.8,3.16,1.59,3.25,3.93.44,11.28.49,11.27,11.74,11.28,11.87,0,10.49.72,10.54-10.21,0-.26,0-.52,0-.77-.25-2.48.84-3.53,3.3-4.26,5.51-1.64,10.94-3.62,16.28-5.77,3.06-1.24,6.11-4.61,8.75-4.22,2.86.42,5.32,4,7.79,6.39,2,2,3.74,1.82,5.6-.15s3.82-3.82,5.73-5.73c8-8,7.82-6.41-.05-14.32-.1-.09-.18-.19-.28-.27-2.26-1.73-2.16-3.47-.79-6,2.76-5,5.16-10.32,7.44-15.61,1.25-2.91,1.07-7.23,3.13-8.77,2.22-1.65,6.31-1,9.59-1,2.94-.06,4.24-1.38,4.22-4.24,0-4.5-.08-9,0-13.51.08-3.5-1.49-4.94-4.94-4.67-1.79.15-3.61-.1-5.4.06-2.92.25-4.2-.81-5-3.82a166.47,166.47,0,0,0-6-16.61c-1.13-2.81-4.22-5.65-3.83-8.06.42-2.66,3.85-4.81,5.92-7.23C162.11,48.56,162.78,47.51,163.47,46.57Z" transform="translate(-11.81 -9.45)"/>
  <path class="cls-1" d="M150.23,96.37a51.51,51.51,0,1,1-51.5-51.5A51.5,51.5,0,0,1,150.23,96.37ZM98.7,50.27a46.11,46.11,0,1,0,46.1,46.1A46.1,46.1,0,0,0,98.7,50.27Z" transform="translate(-11.81 -9.45)"/>
  <g>
    <path class="cls-1" d="M64.31,105.06c.5-3.1.92-6.23,1.54-9.31a53.33,53.33,0,0,1,4.87-14.86A25.72,25.72,0,0,1,74,76c3.82-4.33,8.68-5.59,14.25-4.39,2.53.54,5,1.23,7.59,1.65,4.49.73,8.77-.49,13.08-1.57,6.3-1.58,11.71.47,15.54,5.74,3.26,4.5,5,9.66,6.19,15,.94,4.16,1.5,8.4,2.24,12.6a5,5,0,0,0,.24.71v5.5c-.29,1.28-.5,2.59-.89,3.84-2,6.34-8.16,8.5-13.55,4.63a20.75,20.75,0,0,1-4.17-4,13.15,13.15,0,0,0-9.14-5.22,50.36,50.36,0,0,0-14.76.25A13,13,0,0,0,83,115.36a25.82,25.82,0,0,1-5.14,4.72c-4.71,3.08-10.07,1.3-12.14-3.93a43,43,0,0,1-1.41-5.58Zm4.41,3.24a44.92,44.92,0,0,0,1.11,5.8c1,3.06,3.38,3.83,6,1.93a24.49,24.49,0,0,0,4-3.93,16.52,16.52,0,0,1,8.87-5.61c4.77-1.19,9.61-1,14.45-.81,6.09.22,11.32,2.24,15.09,7.35a13.59,13.59,0,0,0,3.23,3c2.7,1.9,5.35,1,6.37-2.14a16.39,16.39,0,0,0,.69-4.19c.23-5-.78-9.94-1.87-14.81-1.16-5.11-2.56-10.18-5.64-14.56s-6.77-5.68-11.72-4.15a34,34,0,0,1-20.58.14c-6.84-2.1-10.83.83-13.41,5.64C71,90,69.5,98.7,68.72,108.3Z" transform="translate(-11.81 -9.45)"/>
    <path class="cls-1" d="M86.83,89.89h3.46c2.08,0,2.11.78,2.08,1.94s0,1.79-2.09,1.79H86.83c0,1.22,0,2.32,0,3.43,0,2.11-.76,2.13-1.91,2.11s-1.81,0-1.81-2.07V93.63H79.68c-2.13,0-2.13-.72-2.13-1.87s0-1.86,2.16-1.86l3.1,0s.07,0,.29-.1V86.53c0-2.18.67-2.16,1.83-2.18s1.89,0,1.89,2.13C86.82,87.55,86.83,88.63,86.83,89.89Z" transform="translate(-11.81 -9.45)"/>
    <path class="cls-1" d="M119.38,91.82a3,3,0,0,1-2.87,2.79,2.85,2.85,0,1,1,.11-5.69A3,3,0,0,1,119.38,91.82Z" transform="translate(-11.81 -9.45)"/>
    <path class="cls-1" d="M106.69,92a2.89,2.89,0,0,1-3,2.63,3,3,0,0,1-2.66-3,2.9,2.9,0,0,1,3.1-2.68A2.84,2.84,0,0,1,106.69,92Z" transform="translate(-11.81 -9.45)"/>
    <path class="cls-1" d="M113,98.1a2.8,2.8,0,0,1-5.59,0,2.73,2.73,0,0,1,2.86-2.85A2.76,2.76,0,0,1,113,98.1Z" transform="translate(-11.81 -9.45)"/>
    <path class="cls-1" d="M110.27,82.66A2.69,2.69,0,0,1,113,85.47a2.8,2.8,0,1,1-5.59-.14A2.67,2.67,0,0,1,110.27,82.66Z" transform="translate(-11.81 -9.45)"/>
  </g>
  <g>
    <path class="cls-1" d="M271,97.85c0-27.92,16.8-45,39.82-45a33.35,33.35,0,0,1,25,10.71l-6.08,7.15c-4.37-4.5-9.93-8.21-18.66-8.21-17.46,0-28.7,13.5-28.7,35.06,0,21.83,10.31,35.59,28.84,35.59,6.21,0,12.17-2,15.61-5.16V105.39H308.42V96.26h28.44v36.51c-5.56,5.82-15.08,10.06-26.72,10.06C287.25,142.83,271,126.16,271,97.85Z" transform="translate(-11.81 -9.45)"/>
    <path class="cls-1" d="M352.6,124.57c0-14,12-21,39.42-24.08,0-8.2-2.64-16.14-13.23-16.14-7.41,0-14.15,3.44-19.18,6.88l-4.23-7.54c5.95-3.84,14.95-8.33,25.26-8.33,15.75,0,22.36,10.45,22.36,26.45v39.43h-9l-.93-7.67h-.4c-6.08,5-13.23,9.26-21.3,9.26C360.67,142.83,352.6,136.08,352.6,124.57Zm39.42.93V107.64c-21.43,2.64-28.84,7.93-28.84,16.14,0,7.27,5,10.32,11.38,10.32S385.8,131.05,392,125.5Z" transform="translate(-11.81 -9.45)"/>
    <path class="cls-1" d="M423.24,76.94h9l.92,9.26h.4c5.56-6.08,12.3-10.84,20-10.84,9.79,0,15.08,4.63,17.72,12.3,6.75-7.28,13.36-12.3,21.17-12.3,13.23,0,19.58,8.73,19.58,25.13v40.75H501.16V102c0-12-3.84-17.2-11.91-17.2-5,0-10.18,3.31-16.14,9.92v46.57H462.27V102c0-12-3.84-17.2-12-17.2-4.76,0-10.19,3.31-16.14,9.92v46.57H423.24Z" transform="translate(-11.81 -9.45)"/>
    <path class="cls-1" d="M528.14,109.22c0-21,14.16-33.86,28.84-33.86,16.41,0,25.67,11.77,25.67,30.16a41.34,41.34,0,0,1-.4,6.22H538.86c.79,13.62,9.13,22.36,21.43,22.36a29.07,29.07,0,0,0,16-5l3.84,7.14A38.33,38.33,0,0,1,559,142.83C541.77,142.83,528.14,130.26,528.14,109.22Zm45-5.29c0-13-5.82-20-15.87-20-9,0-17.2,7.27-18.52,20Z" transform="translate(-11.81 -9.45)"/>
    <path class="cls-1" d="M585.56,54.45h11.77l13.89,46.84c3.18,10.31,5.16,18.52,8.47,28.7h.53c3.17-10.18,5.29-18.39,8.33-28.7l13.89-46.84h11.25l-27.52,86.79H613.34Z" transform="translate(-11.81 -9.45)"/>
    <path class="cls-1" d="M657.66,124.57c0-14,12-21,39.42-24.08,0-8.2-2.65-16.14-13.23-16.14-7.41,0-14.16,3.44-19.18,6.88l-4.24-7.54c6-3.84,15-8.33,25.27-8.33,15.74,0,22.36,10.45,22.36,26.45v39.43h-9l-.92-7.67h-.4c-6.08,5-13.23,9.26-21.3,9.26C665.73,142.83,657.66,136.08,657.66,124.57Zm39.42.93V107.64c-21.43,2.64-28.84,7.93-28.84,16.14,0,7.27,5,10.32,11.38,10.32S690.86,131.05,697.08,125.5Z" transform="translate(-11.81 -9.45)"/>
    <path class="cls-1" d="M727.37,117.69V76.94h11v39.29c0,12,3.57,17.2,12,17.2,6.62,0,11.25-3.3,17.33-10.84V76.94h10.85v64.3h-9l-.92-10.06h-.4c-6,7-12.3,11.65-21.17,11.65C733.46,142.83,727.37,134.1,727.37,117.69Z" transform="translate(-11.81 -9.45)"/>
    <path class="cls-1" d="M800.26,128.27V47.05h10.85v82c0,3.44,1.45,4.76,3,4.76a9.26,9.26,0,0,0,2.38-.26l1.46,8.2a14.65,14.65,0,0,1-6.22,1.06C803.57,142.83,800.26,137.67,800.26,128.27Z" transform="translate(-11.81 -9.45)"/>
    <path class="cls-1" d="M835.85,121.39V85.81h-9.53V77.6l10-.66,1.33-18h9.13v18h17.33v8.87H846.83v35.72c0,7.93,2.51,12.43,9.92,12.43a23.1,23.1,0,0,0,7.27-1.72l2.12,8.2a39.42,39.42,0,0,1-11.91,2.39C840.48,142.83,835.85,134.1,835.85,121.39Z" transform="translate(-11.81 -9.45)"/>
  </g>
</svg>
